<mxfile host="app.diagrams.net" modified="2020-11-16T17:55:08.157Z" agent="5.0 (Windows NT 10.0; Win64; x64) AppleWebKit/537.36 (KHTML, like Gecko) Chrome/86.0.4240.193 Safari/537.36" etag="hlPvRM0t-lhW6WhhL97T" version="13.9.8" type="github">
  <diagram id="z4NY-CRAN8Iqdoqhpu5Z" name="Page-1">
    <mxGraphModel dx="1422" dy="762" grid="1" gridSize="10" guides="1" tooltips="1" connect="1" arrows="1" fold="1" page="1" pageScale="1" pageWidth="827" pageHeight="1169" math="0" shadow="0">
      <root>
        <mxCell id="0" />
        <mxCell id="1" parent="0" />
        <mxCell id="ml9_eG9htWzkz7weZCml-1" value="&lt;font style=&quot;font-size: 18px&quot;&gt;Backer&lt;/font&gt;" style="rounded=0;whiteSpace=wrap;html=1;" parent="1" vertex="1">
          <mxGeometry x="25" y="280" width="180" height="80" as="geometry" />
        </mxCell>
        <mxCell id="ml9_eG9htWzkz7weZCml-3" value="&lt;font style=&quot;font-size: 18px&quot;&gt;Project&lt;/font&gt;" style="rounded=0;whiteSpace=wrap;html=1;" parent="1" vertex="1">
          <mxGeometry x="290" y="570" width="200" height="70" as="geometry" />
        </mxCell>
        <mxCell id="ml9_eG9htWzkz7weZCml-4" value="&lt;font style=&quot;font-size: 18px&quot;&gt;Creator&lt;/font&gt;" style="rounded=0;whiteSpace=wrap;html=1;" parent="1" vertex="1">
          <mxGeometry x="605" y="305" width="180" height="75" as="geometry" />
        </mxCell>
        <mxCell id="ml9_eG9htWzkz7weZCml-6" value="" style="whiteSpace=wrap;html=1;aspect=fixed;" parent="1" vertex="1">
          <mxGeometry x="1" y="360" width="249" height="249" as="geometry" />
        </mxCell>
        <mxCell id="ml9_eG9htWzkz7weZCml-7" value="&lt;font style=&quot;font-size: 14px&quot;&gt;ID&lt;br&gt;&lt;br&gt;Username&lt;br&gt;&lt;br&gt;Wallet&lt;br&gt;&lt;br&gt;&amp;lt;List&amp;gt; Supp Projects&lt;br&gt;&lt;br&gt;Email&lt;br&gt;&lt;br&gt;IsActive&lt;br&gt;&lt;br&gt;Tag&lt;br&gt;&lt;br&gt;Cart&lt;br&gt;&lt;/font&gt;" style="text;html=1;strokeColor=none;fillColor=none;align=center;verticalAlign=middle;whiteSpace=wrap;rounded=0;" parent="1" vertex="1">
          <mxGeometry x="37.5" y="475" width="155" height="20" as="geometry" />
        </mxCell>
        <mxCell id="ml9_eG9htWzkz7weZCml-8" value="" style="whiteSpace=wrap;html=1;aspect=fixed;" parent="1" vertex="1">
          <mxGeometry x="600" y="380" width="190" height="190" as="geometry" />
        </mxCell>
        <mxCell id="ml9_eG9htWzkz7weZCml-9" value="&lt;font style=&quot;font-size: 14px&quot;&gt;ID&lt;br&gt;&lt;br&gt;Username&lt;br&gt;&lt;br&gt;&amp;lt;List&amp;gt;Created Projects&lt;br&gt;&lt;br&gt;Email&lt;br&gt;&lt;br&gt;Bio&lt;/font&gt;" style="text;html=1;strokeColor=none;fillColor=none;align=center;verticalAlign=middle;whiteSpace=wrap;rounded=0;" parent="1" vertex="1">
          <mxGeometry x="620" y="460" width="150" height="20" as="geometry" />
        </mxCell>
        <mxCell id="ml9_eG9htWzkz7weZCml-12" value="" style="whiteSpace=wrap;html=1;aspect=fixed;" parent="1" vertex="1">
          <mxGeometry x="191.25" y="640" width="425" height="425" as="geometry" />
        </mxCell>
        <mxCell id="ml9_eG9htWzkz7weZCml-13" value="&lt;font style=&quot;font-size: 14px&quot;&gt;ID&lt;br&gt;&lt;br&gt;Title&lt;br&gt;&lt;br&gt;Description&lt;br&gt;&lt;br&gt;Project Creator&lt;br&gt;&lt;br&gt;Goal&lt;br&gt;&lt;br&gt;&amp;lt;List&amp;gt; Backers&lt;br&gt;&lt;br&gt;CurrentAmount&lt;br&gt;&lt;br&gt;Media&lt;br&gt;&lt;br&gt;IsTrending&lt;br&gt;&lt;br&gt;Created&lt;br&gt;&lt;br&gt;Tags&lt;br&gt;&lt;br&gt;EndDate&lt;br&gt;&lt;br&gt;&amp;lt;List&amp;gt; Bundles&lt;br&gt;&lt;/font&gt;" style="text;html=1;strokeColor=none;fillColor=none;align=center;verticalAlign=middle;whiteSpace=wrap;rounded=0;" parent="1" vertex="1">
          <mxGeometry x="340" y="830" width="100" height="20" as="geometry" />
        </mxCell>
        <mxCell id="ml9_eG9htWzkz7weZCml-15" value="&lt;font style=&quot;font-size: 18px&quot;&gt;Bundles&lt;/font&gt;" style="rounded=0;whiteSpace=wrap;html=1;" parent="1" vertex="1">
          <mxGeometry x="245" y="140" width="120" height="60" as="geometry" />
        </mxCell>
        <mxCell id="ml9_eG9htWzkz7weZCml-16" value="&lt;font style=&quot;font-size: 14px&quot;&gt;ID&lt;br&gt;&lt;br&gt;ProjectID&lt;br&gt;&lt;br&gt;Prize&lt;br&gt;&lt;br&gt;Description&lt;/font&gt;" style="whiteSpace=wrap;html=1;aspect=fixed;" parent="1" vertex="1">
          <mxGeometry x="230" y="200" width="150" height="150" as="geometry" />
        </mxCell>
        <mxCell id="ml9_eG9htWzkz7weZCml-17" value="&lt;font style=&quot;font-size: 14px&quot;&gt;ID&lt;br&gt;&lt;br&gt;BackerID&lt;br&gt;&lt;br&gt;ProjectID&lt;br&gt;&lt;br&gt;BundleID&lt;/font&gt;" style="whiteSpace=wrap;html=1;aspect=fixed;" parent="1" vertex="1">
          <mxGeometry x="420" y="201" width="154" height="154" as="geometry" />
        </mxCell>
        <mxCell id="ml9_eG9htWzkz7weZCml-18" value="&lt;font style=&quot;font-size: 18px&quot;&gt;CART&lt;/font&gt;" style="rounded=0;whiteSpace=wrap;html=1;" parent="1" vertex="1">
          <mxGeometry x="437" y="141" width="120" height="60" as="geometry" />
        </mxCell>
        <mxCell id="ml9_eG9htWzkz7weZCml-19" value="" style="rounded=0;whiteSpace=wrap;html=1;strokeColor=#b85450;fillColor=none;strokeWidth=3;" parent="1" vertex="1">
          <mxGeometry x="68.5" y="360" width="87" height="20" as="geometry" />
        </mxCell>
        <mxCell id="ml9_eG9htWzkz7weZCml-20" value="" style="rounded=0;whiteSpace=wrap;html=1;strokeWidth=3;strokeColor=#b85450;fillColor=none;" parent="1" vertex="1">
          <mxGeometry x="360" y="640" width="60" height="30" as="geometry" />
        </mxCell>
        <mxCell id="ml9_eG9htWzkz7weZCml-21" value="" style="rounded=0;whiteSpace=wrap;html=1;strokeWidth=3;strokeColor=#b85450;fillColor=none;" parent="1" vertex="1">
          <mxGeometry x="467" y="217" width="60" height="30" as="geometry" />
        </mxCell>
        <mxCell id="ml9_eG9htWzkz7weZCml-22" value="" style="rounded=0;whiteSpace=wrap;html=1;strokeWidth=3;strokeColor=#b85450;fillColor=none;" parent="1" vertex="1">
          <mxGeometry x="275" y="214" width="60" height="30" as="geometry" />
        </mxCell>
        <mxCell id="ml9_eG9htWzkz7weZCml-23" value="" style="rounded=0;whiteSpace=wrap;html=1;strokeWidth=3;strokeColor=#b85450;fillColor=none;" parent="1" vertex="1">
          <mxGeometry x="666" y="393" width="60" height="30" as="geometry" />
        </mxCell>
        <mxCell id="ml9_eG9htWzkz7weZCml-24" value="" style="rounded=0;whiteSpace=wrap;html=1;strokeWidth=3;strokeColor=#82b366;fillColor=none;" parent="1" vertex="1">
          <mxGeometry x="38.75" y="450" width="152.5" height="30" as="geometry" />
        </mxCell>
        <mxCell id="ml9_eG9htWzkz7weZCml-25" value="" style="rounded=0;whiteSpace=wrap;html=1;strokeWidth=3;strokeColor=#82b366;fillColor=none;" parent="1" vertex="1">
          <mxGeometry x="270" y="250" width="70" height="20" as="geometry" />
        </mxCell>
        <mxCell id="ml9_eG9htWzkz7weZCml-26" value="" style="rounded=0;whiteSpace=wrap;html=1;strokeWidth=3;strokeColor=#82b366;fillColor=none;" parent="1" vertex="1">
          <mxGeometry x="620" y="455" width="150" height="30" as="geometry" />
        </mxCell>
        <mxCell id="ml9_eG9htWzkz7weZCml-27" value="" style="rounded=0;whiteSpace=wrap;html=1;strokeWidth=3;strokeColor=#82b366;fillColor=none;" parent="1" vertex="1">
          <mxGeometry x="460" y="250" width="70" height="90" as="geometry" />
        </mxCell>
        <mxCell id="ml9_eG9htWzkz7weZCml-28" value="" style="rounded=0;whiteSpace=wrap;html=1;strokeWidth=3;strokeColor=#82b366;fillColor=none;" parent="1" vertex="1">
          <mxGeometry x="332.5" y="800" width="120" height="30" as="geometry" />
        </mxCell>
        <mxCell id="ml9_eG9htWzkz7weZCml-29" value="" style="rounded=0;whiteSpace=wrap;html=1;strokeWidth=3;strokeColor=#82b366;fillColor=none;" parent="1" vertex="1">
          <mxGeometry x="67" y="579" width="90" height="30" as="geometry" />
        </mxCell>
        <mxCell id="ml9_eG9htWzkz7weZCml-30" value="" style="rounded=0;whiteSpace=wrap;html=1;strokeWidth=3;strokeColor=#82b366;fillColor=none;" parent="1" vertex="1">
          <mxGeometry x="332" y="1020" width="105" height="30" as="geometry" />
        </mxCell>
        <mxCell id="Z-hUink76p45CpY3vbsd-1" value="" style="rounded=0;whiteSpace=wrap;html=1;" vertex="1" parent="1">
          <mxGeometry x="350" y="460" width="120" height="60" as="geometry" />
        </mxCell>
        <mxCell id="Z-hUink76p45CpY3vbsd-2" value="" style="rounded=0;whiteSpace=wrap;html=1;strokeColor=#82b366;fillColor=none;strokeWidth=3;" vertex="1" parent="1">
          <mxGeometry x="340" y="720" width="100" height="40" as="geometry" />
        </mxCell>
        <mxCell id="Z-hUink76p45CpY3vbsd-4" style="edgeStyle=orthogonalEdgeStyle;rounded=0;orthogonalLoop=1;jettySize=auto;html=1;exitX=1;exitY=0;exitDx=0;exitDy=0;entryX=1;entryY=0.5;entryDx=0;entryDy=0;" edge="1" parent="1" source="ml9_eG9htWzkz7weZCml-29" target="ml9_eG9htWzkz7weZCml-29">
          <mxGeometry relative="1" as="geometry" />
        </mxCell>
      </root>
    </mxGraphModel>
  </diagram>
</mxfile>
